<mxfile host="Electron" modified="2024-06-19T17:24:29.503Z" agent="Mozilla/5.0 (Macintosh; Intel Mac OS X 10_15_7) AppleWebKit/537.36 (KHTML, like Gecko) draw.io/24.4.8 Chrome/124.0.6367.207 Electron/30.0.6 Safari/537.36" etag="FsoleOhC0gzRaa-hkNqE" version="24.4.8" type="device">
  <diagram name="Page-1" id="zzbDusr88BfF08cqsqyc">
    <mxGraphModel dx="1314" dy="924" grid="0" gridSize="10" guides="1" tooltips="1" connect="1" arrows="1" fold="1" page="1" pageScale="1" pageWidth="1100" pageHeight="850" math="0" shadow="0">
      <root>
        <mxCell id="0" />
        <mxCell id="1" parent="0" />
        <mxCell id="chuthd7vNJDoZVe5VCft-1" value="Campus Router" style="sketch=0;outlineConnect=0;fontColor=#232F3E;gradientColor=none;fillColor=#8C4FFF;strokeColor=none;dashed=0;verticalLabelPosition=bottom;verticalAlign=top;align=center;html=1;fontSize=12;fontStyle=0;aspect=fixed;pointerEvents=1;shape=mxgraph.aws4.customer_gateway;labelPosition=center;" parent="1" vertex="1">
          <mxGeometry x="29" y="350" width="78" height="78" as="geometry" />
        </mxCell>
        <mxCell id="chuthd7vNJDoZVe5VCft-7" value="AWS Cloud" style="points=[[0,0],[0.25,0],[0.5,0],[0.75,0],[1,0],[1,0.25],[1,0.5],[1,0.75],[1,1],[0.75,1],[0.5,1],[0.25,1],[0,1],[0,0.75],[0,0.5],[0,0.25]];outlineConnect=0;gradientColor=none;html=1;whiteSpace=wrap;fontSize=12;fontStyle=0;container=1;pointerEvents=0;collapsible=0;recursiveResize=0;shape=mxgraph.aws4.group;grIcon=mxgraph.aws4.group_aws_cloud_alt;strokeColor=#232F3E;fillColor=none;verticalAlign=top;align=left;spacingLeft=30;fontColor=#232F3E;dashed=0;strokeWidth=2;" parent="1" vertex="1">
          <mxGeometry x="296" y="80" width="787" height="690" as="geometry" />
        </mxCell>
        <mxCell id="chuthd7vNJDoZVe5VCft-4" value="Direct Connect" style="sketch=0;points=[[0,0,0],[0.25,0,0],[0.5,0,0],[0.75,0,0],[1,0,0],[0,1,0],[0.25,1,0],[0.5,1,0],[0.75,1,0],[1,1,0],[0,0.25,0],[0,0.5,0],[0,0.75,0],[1,0.25,0],[1,0.5,0],[1,0.75,0]];outlineConnect=0;fontColor=#232F3E;fillColor=#8C4FFF;strokeColor=#ffffff;dashed=0;verticalLabelPosition=bottom;verticalAlign=top;align=center;html=1;fontSize=12;fontStyle=0;aspect=fixed;shape=mxgraph.aws4.resourceIcon;resIcon=mxgraph.aws4.direct_connect;" parent="chuthd7vNJDoZVe5VCft-7" vertex="1">
          <mxGeometry x="40" y="270" width="78" height="78" as="geometry" />
        </mxCell>
        <mxCell id="chuthd7vNJDoZVe5VCft-8" value="Region" style="points=[[0,0],[0.25,0],[0.5,0],[0.75,0],[1,0],[1,0.25],[1,0.5],[1,0.75],[1,1],[0.75,1],[0.5,1],[0.25,1],[0,1],[0,0.75],[0,0.5],[0,0.25]];outlineConnect=0;gradientColor=none;html=1;whiteSpace=wrap;fontSize=12;fontStyle=0;container=1;pointerEvents=0;collapsible=0;recursiveResize=0;shape=mxgraph.aws4.group;grIcon=mxgraph.aws4.group_region;strokeColor=#00A4A6;fillColor=none;verticalAlign=top;align=left;spacingLeft=30;fontColor=#147EBA;dashed=1;strokeWidth=2;" parent="chuthd7vNJDoZVe5VCft-7" vertex="1">
          <mxGeometry x="319" y="30" width="439" height="627" as="geometry" />
        </mxCell>
        <mxCell id="chuthd7vNJDoZVe5VCft-9" value="VPC" style="points=[[0,0],[0.25,0],[0.5,0],[0.75,0],[1,0],[1,0.25],[1,0.5],[1,0.75],[1,1],[0.75,1],[0.5,1],[0.25,1],[0,1],[0,0.75],[0,0.5],[0,0.25]];outlineConnect=0;gradientColor=none;html=1;whiteSpace=wrap;fontSize=12;fontStyle=0;container=1;pointerEvents=0;collapsible=0;recursiveResize=0;shape=mxgraph.aws4.group;grIcon=mxgraph.aws4.group_vpc2;strokeColor=#8C4FFF;fillColor=none;verticalAlign=top;align=left;spacingLeft=30;fontColor=#AAB7B8;dashed=0;strokeWidth=2;" parent="chuthd7vNJDoZVe5VCft-8" vertex="1">
          <mxGeometry x="189" y="169" width="170" height="220" as="geometry" />
        </mxCell>
        <mxCell id="chuthd7vNJDoZVe5VCft-6" value="" style="sketch=0;outlineConnect=0;fontColor=#232F3E;gradientColor=none;fillColor=#ED7100;strokeColor=none;dashed=0;verticalLabelPosition=bottom;verticalAlign=top;align=center;html=1;fontSize=12;fontStyle=0;aspect=fixed;pointerEvents=1;shape=mxgraph.aws4.instance2;" parent="chuthd7vNJDoZVe5VCft-9" vertex="1">
          <mxGeometry x="21" y="86" width="48" height="48" as="geometry" />
        </mxCell>
        <mxCell id="chuthd7vNJDoZVe5VCft-5" value="TGW" style="sketch=0;points=[[0,0,0],[0.25,0,0],[0.5,0,0],[0.75,0,0],[1,0,0],[0,1,0],[0.25,1,0],[0.5,1,0],[0.75,1,0],[1,1,0],[0,0.25,0],[0,0.5,0],[0,0.75,0],[1,0.25,0],[1,0.5,0],[1,0.75,0]];outlineConnect=0;fontColor=#232F3E;fillColor=#8C4FFF;strokeColor=#ffffff;dashed=0;verticalLabelPosition=bottom;verticalAlign=top;align=center;html=1;fontSize=12;fontStyle=0;aspect=fixed;shape=mxgraph.aws4.resourceIcon;resIcon=mxgraph.aws4.transit_gateway;" parent="chuthd7vNJDoZVe5VCft-8" vertex="1">
          <mxGeometry x="23" y="167" width="78" height="78" as="geometry" />
        </mxCell>
        <mxCell id="chuthd7vNJDoZVe5VCft-12" style="edgeStyle=orthogonalEdgeStyle;rounded=0;orthogonalLoop=1;jettySize=auto;html=1;strokeColor=default;strokeWidth=2;align=center;verticalAlign=middle;fontFamily=Helvetica;fontSize=11;fontColor=default;labelBackgroundColor=default;endArrow=classic;" parent="chuthd7vNJDoZVe5VCft-8" source="chuthd7vNJDoZVe5VCft-5" target="chuthd7vNJDoZVe5VCft-9" edge="1">
          <mxGeometry relative="1" as="geometry" />
        </mxCell>
        <mxCell id="chuthd7vNJDoZVe5VCft-23" style="edgeStyle=orthogonalEdgeStyle;rounded=0;orthogonalLoop=1;jettySize=auto;html=1;opacity=50;strokeColor=#666666;strokeWidth=2;align=center;verticalAlign=middle;fontFamily=Helvetica;fontSize=11;fontColor=default;labelBackgroundColor=default;elbow=vertical;endArrow=classic;fillColor=#f5f5f5;" parent="chuthd7vNJDoZVe5VCft-7" edge="1">
          <mxGeometry relative="1" as="geometry">
            <Array as="points">
              <mxPoint x="265" y="608" />
              <mxPoint x="265" y="608" />
            </Array>
            <mxPoint x="119" y="608" as="sourcePoint" />
            <mxPoint x="410" y="608" as="targetPoint" />
          </mxGeometry>
        </mxCell>
        <mxCell id="pEPaFxKAQTOBD3I_Bd1l-1" value="Campus Router" style="sketch=0;outlineConnect=0;fontColor=#232F3E;gradientColor=none;fillColor=#8C4FFF;strokeColor=none;dashed=0;verticalLabelPosition=top;verticalAlign=bottom;align=center;html=1;fontSize=12;fontStyle=0;aspect=fixed;pointerEvents=1;shape=mxgraph.aws4.customer_gateway;labelPosition=center;" vertex="1" parent="chuthd7vNJDoZVe5VCft-7">
          <mxGeometry x="-267" y="135" width="78" height="78" as="geometry" />
        </mxCell>
        <mxCell id="pEPaFxKAQTOBD3I_Bd1l-6" style="edgeStyle=orthogonalEdgeStyle;rounded=0;orthogonalLoop=1;jettySize=auto;html=1;strokeWidth=2;" edge="1" parent="chuthd7vNJDoZVe5VCft-7" source="pEPaFxKAQTOBD3I_Bd1l-2" target="chuthd7vNJDoZVe5VCft-3">
          <mxGeometry relative="1" as="geometry" />
        </mxCell>
        <mxCell id="pEPaFxKAQTOBD3I_Bd1l-2" value="Direct Connect" style="sketch=0;points=[[0,0,0],[0.25,0,0],[0.5,0,0],[0.75,0,0],[1,0,0],[0,1,0],[0.25,1,0],[0.5,1,0],[0.75,1,0],[1,1,0],[0,0.25,0],[0,0.5,0],[0,0.75,0],[1,0.25,0],[1,0.5,0],[1,0.75,0]];outlineConnect=0;fontColor=#232F3E;fillColor=#8C4FFF;strokeColor=#ffffff;dashed=0;verticalLabelPosition=bottom;verticalAlign=top;align=center;html=1;fontSize=12;fontStyle=0;aspect=fixed;shape=mxgraph.aws4.resourceIcon;resIcon=mxgraph.aws4.direct_connect;" vertex="1" parent="chuthd7vNJDoZVe5VCft-7">
          <mxGeometry x="40" y="135" width="78" height="78" as="geometry" />
        </mxCell>
        <mxCell id="pEPaFxKAQTOBD3I_Bd1l-3" style="edgeStyle=orthogonalEdgeStyle;rounded=0;orthogonalLoop=1;jettySize=auto;html=1;entryX=0;entryY=0.5;entryDx=0;entryDy=0;entryPerimeter=0;strokeWidth=2;" edge="1" parent="chuthd7vNJDoZVe5VCft-7" source="pEPaFxKAQTOBD3I_Bd1l-1" target="pEPaFxKAQTOBD3I_Bd1l-2">
          <mxGeometry relative="1" as="geometry" />
        </mxCell>
        <mxCell id="pEPaFxKAQTOBD3I_Bd1l-4" value="50Mbps" style="edgeLabel;html=1;align=center;verticalAlign=middle;resizable=0;points=[];" vertex="1" connectable="0" parent="pEPaFxKAQTOBD3I_Bd1l-3">
          <mxGeometry x="-0.3484" y="1" relative="1" as="geometry">
            <mxPoint x="7" y="-1" as="offset" />
          </mxGeometry>
        </mxCell>
        <mxCell id="chuthd7vNJDoZVe5VCft-3" value="DX GW" style="sketch=0;outlineConnect=0;fontColor=#232F3E;gradientColor=none;fillColor=#8C4FFF;strokeColor=none;dashed=0;verticalLabelPosition=top;verticalAlign=bottom;align=center;html=1;fontSize=12;fontStyle=0;aspect=fixed;pointerEvents=1;shape=mxgraph.aws4.gateway;labelPosition=center;" parent="chuthd7vNJDoZVe5VCft-7" vertex="1">
          <mxGeometry x="216" y="197" width="76" height="78" as="geometry" />
        </mxCell>
        <mxCell id="chuthd7vNJDoZVe5VCft-14" style="edgeStyle=orthogonalEdgeStyle;rounded=0;orthogonalLoop=1;jettySize=auto;html=1;exitX=1;exitY=0.5;exitDx=0;exitDy=0;exitPerimeter=0;strokeColor=default;strokeWidth=2;align=center;verticalAlign=middle;fontFamily=Helvetica;fontSize=11;fontColor=default;labelBackgroundColor=default;endArrow=classic;" parent="chuthd7vNJDoZVe5VCft-7" source="chuthd7vNJDoZVe5VCft-4" target="chuthd7vNJDoZVe5VCft-3" edge="1">
          <mxGeometry relative="1" as="geometry" />
        </mxCell>
        <mxCell id="chuthd7vNJDoZVe5VCft-13" style="edgeStyle=orthogonalEdgeStyle;rounded=0;orthogonalLoop=1;jettySize=auto;html=1;strokeColor=default;strokeWidth=2;align=center;verticalAlign=middle;fontFamily=Helvetica;fontSize=11;fontColor=default;labelBackgroundColor=default;endArrow=classic;" parent="chuthd7vNJDoZVe5VCft-7" source="chuthd7vNJDoZVe5VCft-3" target="chuthd7vNJDoZVe5VCft-5" edge="1">
          <mxGeometry relative="1" as="geometry">
            <mxPoint x="372" y="309" as="sourcePoint" />
          </mxGeometry>
        </mxCell>
        <mxCell id="chuthd7vNJDoZVe5VCft-19" value="" style="sketch=0;points=[[0,0,0],[0.25,0,0],[0.5,0,0],[0.75,0,0],[1,0,0],[0,1,0],[0.25,1,0],[0.5,1,0],[0.75,1,0],[1,1,0],[0,0.25,0],[0,0.5,0],[0,0.75,0],[1,0.25,0],[1,0.5,0],[1,0.75,0]];outlineConnect=0;fontColor=default;fillColor=#dae8fc;strokeColor=#6c8ebf;dashed=0;verticalLabelPosition=bottom;verticalAlign=top;align=center;html=1;fontSize=12;fontStyle=0;aspect=fixed;shape=mxgraph.aws4.resourceIcon;resIcon=mxgraph.aws4.site_to_site_vpn;pointerEvents=1;strokeWidth=2;fontFamily=Helvetica;" parent="chuthd7vNJDoZVe5VCft-7" vertex="1">
          <mxGeometry x="39" y="559" width="78" height="78" as="geometry" />
        </mxCell>
        <mxCell id="pEPaFxKAQTOBD3I_Bd1l-5" style="edgeStyle=orthogonalEdgeStyle;rounded=0;orthogonalLoop=1;jettySize=auto;html=1;opacity=50;strokeColor=#666666;strokeWidth=2;align=center;verticalAlign=middle;fontFamily=Helvetica;fontSize=11;fontColor=default;labelBackgroundColor=default;elbow=vertical;endArrow=classic;fillColor=#f5f5f5;" edge="1" parent="chuthd7vNJDoZVe5VCft-7" source="chuthd7vNJDoZVe5VCft-19" target="chuthd7vNJDoZVe5VCft-3">
          <mxGeometry relative="1" as="geometry">
            <Array as="points">
              <mxPoint x="236" y="582" />
            </Array>
          </mxGeometry>
        </mxCell>
        <mxCell id="chuthd7vNJDoZVe5VCft-16" style="rounded=0;orthogonalLoop=1;jettySize=auto;html=1;edgeStyle=elbowEdgeStyle;elbow=vertical;fillColor=#f5f5f5;strokeColor=#666666;strokeWidth=2;opacity=50;" parent="chuthd7vNJDoZVe5VCft-7" edge="1">
          <mxGeometry relative="1" as="geometry">
            <Array as="points">
              <mxPoint x="321" y="582.24" />
            </Array>
            <mxPoint x="254" y="288.99986755584575" as="sourcePoint" />
            <mxPoint x="409" y="582.24" as="targetPoint" />
          </mxGeometry>
        </mxCell>
        <mxCell id="chuthd7vNJDoZVe5VCft-15" style="edgeStyle=orthogonalEdgeStyle;rounded=0;orthogonalLoop=1;jettySize=auto;html=1;entryX=0;entryY=0.5;entryDx=0;entryDy=0;entryPerimeter=0;strokeWidth=2;" parent="1" source="chuthd7vNJDoZVe5VCft-1" target="chuthd7vNJDoZVe5VCft-4" edge="1">
          <mxGeometry relative="1" as="geometry" />
        </mxCell>
        <mxCell id="ycRkz0ZerhdYFoithyHN-1" value="50Mbps" style="edgeLabel;html=1;align=center;verticalAlign=middle;resizable=0;points=[];" parent="chuthd7vNJDoZVe5VCft-15" vertex="1" connectable="0">
          <mxGeometry x="-0.3484" y="1" relative="1" as="geometry">
            <mxPoint x="7" y="-1" as="offset" />
          </mxGeometry>
        </mxCell>
        <mxCell id="pEPaFxKAQTOBD3I_Bd1l-7" style="edgeStyle=orthogonalEdgeStyle;rounded=0;orthogonalLoop=1;jettySize=auto;html=1;endArrow=none;endFill=0;strokeWidth=3;" edge="1" parent="1" source="pEPaFxKAQTOBD3I_Bd1l-1" target="chuthd7vNJDoZVe5VCft-1">
          <mxGeometry relative="1" as="geometry" />
        </mxCell>
        <mxCell id="ycRkz0ZerhdYFoithyHN-3" value="Alternate" style="" parent="0" />
        <mxCell id="chuthd7vNJDoZVe5VCft-21" style="edgeStyle=orthogonalEdgeStyle;rounded=0;orthogonalLoop=1;jettySize=auto;html=1;opacity=50;strokeColor=#666666;strokeWidth=2;align=center;verticalAlign=middle;fontFamily=Helvetica;fontSize=11;fontColor=default;labelBackgroundColor=default;elbow=vertical;endArrow=classic;fillColor=#f5f5f5;" parent="ycRkz0ZerhdYFoithyHN-3" source="chuthd7vNJDoZVe5VCft-1" target="chuthd7vNJDoZVe5VCft-19" edge="1">
          <mxGeometry relative="1" as="geometry">
            <Array as="points">
              <mxPoint x="71" y="671" />
            </Array>
            <mxPoint x="169" y="597" as="targetPoint" />
          </mxGeometry>
        </mxCell>
        <mxCell id="chuthd7vNJDoZVe5VCft-2" value="VPG" style="sketch=0;outlineConnect=0;dashed=0;verticalLabelPosition=bottom;verticalAlign=top;align=center;html=1;fontSize=12;fontStyle=0;aspect=fixed;pointerEvents=1;shape=mxgraph.aws4.vpn_gateway;strokeWidth=2;fillColor=#dae8fc;strokeColor=#6c8ebf;" parent="ycRkz0ZerhdYFoithyHN-3" vertex="1">
          <mxGeometry x="704" y="631" width="78" height="78" as="geometry" />
        </mxCell>
        <mxCell id="chuthd7vNJDoZVe5VCft-17" style="edgeStyle=orthogonalEdgeStyle;rounded=0;orthogonalLoop=1;jettySize=auto;html=1;entryX=0.5;entryY=1;entryDx=0;entryDy=0;fillColor=#f5f5f5;strokeColor=#666666;strokeWidth=2;opacity=50;" parent="ycRkz0ZerhdYFoithyHN-3" source="chuthd7vNJDoZVe5VCft-2" target="chuthd7vNJDoZVe5VCft-9" edge="1">
          <mxGeometry relative="1" as="geometry" />
        </mxCell>
      </root>
    </mxGraphModel>
  </diagram>
</mxfile>
